<svg width="16" height="17" viewBox="0 0 16 17" fill="none" xmlns="http://www.w3.org/2000/svg">
<path d="M6 12.5002C5.63333 12.5002 5.31944 12.3696 5.05833 12.1085C4.79722 11.8474 4.66667 11.5335 4.66667 11.1668V3.16683C4.66667 2.80016 4.79722 2.48627 5.05833 2.22516C5.31944 1.96405 5.63333 1.8335 6 1.8335H12C12.3667 1.8335 12.6806 1.96405 12.9417 2.22516C13.2028 2.48627 13.3333 2.80016 13.3333 3.16683V11.1668C13.3333 11.5335 13.2028 11.8474 12.9417 12.1085C12.6806 12.3696 12.3667 12.5002 12 12.5002H6ZM6 11.1668H12V3.16683H6V11.1668ZM3.33333 15.1668C2.96667 15.1668 2.65278 15.0363 2.39167 14.7752C2.13056 14.5141 2 14.2002 2 13.8335V5.16683C2 4.97794 2.06389 4.81961 2.19167 4.69183C2.31944 4.56405 2.47778 4.50016 2.66667 4.50016C2.85556 4.50016 3.01389 4.56405 3.14167 4.69183C3.26944 4.81961 3.33333 4.97794 3.33333 5.16683V13.8335H10C10.1889 13.8335 10.3472 13.8974 10.475 14.0252C10.6028 14.1529 10.6667 14.3113 10.6667 14.5002C10.6667 14.6891 10.6028 14.8474 10.475 14.9752C10.3472 15.1029 10.1889 15.1668 10 15.1668H3.33333Z" fill="#667085"/>
</svg>
