<svg width="15" height="15" viewBox="0 0 15 15" fill="none" xmlns="http://www.w3.org/2000/svg">
<path d="M7.49902 0.876953C11.1564 0.876953 14.1217 3.84169 14.1221 7.49902C14.1221 11.1567 11.1567 14.1221 7.49902 14.1221C3.84169 14.1217 0.876953 11.1564 0.876953 7.49902C0.877364 3.84194 3.84194 0.877364 7.49902 0.876953ZM7.49902 1.82617C4.36661 1.82658 1.82658 4.36661 1.82617 7.49902C1.82617 10.6318 4.36636 13.1715 7.49902 13.1719C10.632 13.1719 13.1719 10.632 13.1719 7.49902C13.1715 4.36636 10.6318 1.82617 7.49902 1.82617ZM7.60059 6.00977C7.8285 6.05632 7.99998 6.25833 8 6.5V10H9V11H6V10H7V7H6V6H7.5L7.60059 6.00977ZM7.5 3.75C7.91411 3.75011 8.24997 4.08588 8.25 4.5C8.25 4.91415 7.91412 5.24989 7.5 5.25C7.08579 5.25 6.75 4.91421 6.75 4.5C6.75003 4.08581 7.0858 3.75 7.5 3.75Z" fill="black"/>
</svg>
