<svg width="256" height="256" viewBox="0 0 256 256" fill="none" xmlns="http://www.w3.org/2000/svg">
<path d="M247.2 70.5062C247.2 53.0975 235.462 39 220.967 39H146.192L133.452 67.2954H206.137C210.231 67.2954 213.531 71.2588 213.531 76.1753V80.9414C213.531 91.5271 206.388 100.056 197.615 100.056H175.225L155.675 128H193.981C198.325 128 201.834 132.214 201.834 137.432V155.091C201.834 165.276 194.942 173.554 186.462 173.554H123.802L105.672 199.441H183.705C210.857 199.441 232.872 173.002 232.872 140.392C232.872 126.746 224.308 115.608 213.28 114.053C232.204 112.498 247.2 93.6342 247.2 70.5062Z" fill="#0E0E0E"/>
<path d="M169.705 99.9555H142.719L159.47 72.7638H126.01L141.382 39L52.6139 58.566H127.388L123.211 64.4357L84.6958 73.8675H116.444L110.219 82.5969L8 100.106H97.6456H124.297L116.861 113.752L55.0785 124.438L109.259 127.699L105.499 134.572H122.584L106.543 172.5L58.7546 180.226L101.781 183.788L87.7453 217L169.705 99.9555Z" fill="#E05F1B"/>
<path d="M115.229 140.587L9.7937 151.524L107.459 158.999L115.229 140.587Z" fill="#E05F1B"/>
</svg>
