<svg width="38" height="23" viewBox="0 0 38 23" fill="none" xmlns="http://www.w3.org/2000/svg">
<path d="M37.1199 4.07001C37.1199 1.82001 35.2999 0 33.0499 0H21.4499L19.4699 3.66003H30.7499C31.3799 3.66003 31.8999 4.17 31.8999 4.81V5.43005C31.8999 6.80005 30.7899 7.90002 29.4299 7.90002H25.9499L22.9199 11.5H28.8599C29.5299 11.5 30.0799 12.05 30.0799 12.72V15C30.0799 16.32 29.0099 17.38 27.6999 17.38H17.9799L15.1699 20.72H27.2799C31.4899 20.72 34.9099 17.3 34.9099 13.09C34.9099 11.32 33.5799 9.89005 31.8699 9.68005C34.8099 9.49005 37.1399 7.06001 37.1399 4.07001H37.1199Z" fill="#0E0E0E"/>
<path d="M25.09 7.88H20.91L23.5 4.36005H18.31L20.7 0L6.92 2.53003H18.53L17.88 3.28003L11.9 4.51001H16.83L15.86 5.63L0 7.90002H13.92H18.05L16.89 9.66003L7.31 11.04L15.71 11.46L15.13 12.35H17.78L15.3 17.25L7.88 18.2401L14.55 18.71L12.38 22.9901L25.09 7.88Z" fill="#E05F1B"/>
</svg>
