<svg width="833" height="452" viewBox="0 0 833 452" fill="none" xmlns="http://www.w3.org/2000/svg">
<path d="M8.304 30.152C7.51467 30.856 6.496 31.208 5.248 31.208C4 31.208 2.98133 30.856 2.192 30.152C1.40267 29.4373 1.008 28.4827 1.008 27.288V19.8H2.848V27.176C2.848 27.8587 3.04533 28.4027 3.44 28.808C3.84533 29.2133 4.448 29.416 5.248 29.416C6.048 29.416 6.64533 29.2133 7.04 28.808C7.44533 28.4027 7.648 27.8587 7.648 27.176V19.8H9.488V27.288C9.488 28.4827 9.09333 29.4373 8.304 30.152ZM15.7004 22.792C16.6177 22.792 17.359 23.0853 17.9244 23.672C18.4897 24.2587 18.7724 25.064 18.7724 26.088V31H17.0444V26.264C17.0444 25.6667 16.8844 25.208 16.5644 24.888C16.2444 24.568 15.807 24.408 15.2524 24.408C14.6444 24.408 14.1537 24.6 13.7804 24.984C13.407 25.3573 13.2204 25.9333 13.2204 26.712V31H11.4924V23H13.2204V24.024C13.743 23.2027 14.5697 22.792 15.7004 22.792ZM22.265 21.48C22.0517 21.6933 21.7957 21.8 21.497 21.8C21.1983 21.8 20.937 21.6933 20.713 21.48C20.4997 21.256 20.393 20.9947 20.393 20.696C20.393 20.3973 20.4997 20.1413 20.713 19.928C20.9263 19.704 21.1877 19.592 21.497 19.592C21.8063 19.592 22.0677 19.704 22.281 19.928C22.4943 20.1413 22.601 20.3973 22.601 20.696C22.601 20.9947 22.489 21.256 22.265 21.48ZM20.633 31V23H22.361V31H20.633ZM30.7034 23H32.4314V34.2H30.7034V29.864C30.0527 30.76 29.1194 31.208 27.9034 31.208C26.8047 31.208 25.866 30.8027 25.0874 29.992C24.3087 29.1813 23.9194 28.184 23.9194 27C23.9194 25.8267 24.3087 24.8347 25.0874 24.024C25.866 23.2027 26.8047 22.792 27.9034 22.792C29.1194 22.792 30.0527 23.2453 30.7034 24.152V23ZM26.3674 28.84C26.8474 29.32 27.45 29.56 28.1754 29.56C28.9007 29.56 29.5034 29.32 29.9834 28.84C30.4634 28.3493 30.7034 27.736 30.7034 27C30.7034 26.264 30.4634 25.656 29.9834 25.176C29.5034 24.6853 28.9007 24.44 28.1754 24.44C27.45 24.44 26.8474 24.6853 26.3674 25.176C25.8874 25.656 25.6474 26.264 25.6474 27C25.6474 27.736 25.8874 28.3493 26.3674 28.84ZM39.8375 23H41.5655V31H39.8375V29.976C39.3148 30.7973 38.4882 31.208 37.3575 31.208C36.4402 31.208 35.6988 30.9147 35.1335 30.328C34.5682 29.7413 34.2855 28.936 34.2855 27.912V23H36.0135V27.736C36.0135 28.3333 36.1735 28.792 36.4935 29.112C36.8135 29.432 37.2508 29.592 37.8055 29.592C38.4135 29.592 38.9042 29.4053 39.2775 29.032C39.6508 28.648 39.8375 28.0667 39.8375 27.288V23ZM44.9461 27.736C45.0741 28.344 45.3675 28.8133 45.8261 29.144C46.2848 29.464 46.8448 29.624 47.5061 29.624C48.4235 29.624 49.1115 29.2933 49.5701 28.632L50.9941 29.464C50.2048 30.6267 49.0368 31.208 47.4901 31.208C46.1888 31.208 45.1381 30.8133 44.3381 30.024C43.5381 29.224 43.1381 28.216 43.1381 27C43.1381 25.8053 43.5328 24.808 44.3221 24.008C45.1115 23.1973 46.1248 22.792 47.3621 22.792C48.5355 22.792 49.4955 23.2027 50.2421 24.024C50.9995 24.8453 51.3781 25.8427 51.3781 27.016C51.3781 27.1973 51.3568 27.4373 51.3141 27.736H44.9461ZM44.9301 26.328H49.6341C49.5168 25.6773 49.2448 25.1867 48.8181 24.856C48.4021 24.5253 47.9115 24.36 47.3461 24.36C46.7061 24.36 46.1728 24.536 45.7461 24.888C45.3195 25.24 45.0475 25.72 44.9301 26.328ZM59.8586 31L55.9706 19.8H57.9866L60.9626 28.776L63.9546 19.8H65.9546L62.0666 31H59.8586ZM68.3588 21.48C68.1454 21.6933 67.8894 21.8 67.5908 21.8C67.2921 21.8 67.0308 21.6933 66.8068 21.48C66.5934 21.256 66.4868 20.9947 66.4868 20.696C66.4868 20.3973 66.5934 20.1413 66.8068 19.928C67.0201 19.704 67.2814 19.592 67.5908 19.592C67.9001 19.592 68.1614 19.704 68.3748 19.928C68.5881 20.1413 68.6948 20.3973 68.6948 20.696C68.6948 20.9947 68.5828 21.256 68.3588 21.48ZM66.7268 31V23H68.4548V31H66.7268ZM71.9663 25.208C71.9663 25.4747 72.1103 25.688 72.3983 25.848C72.6969 25.9973 73.0543 26.1307 73.4703 26.248C73.8969 26.3547 74.3236 26.4827 74.7503 26.632C75.1769 26.7813 75.5343 27.0373 75.8223 27.4C76.1209 27.752 76.2703 28.2 76.2703 28.744C76.2703 29.512 75.9716 30.1147 75.3743 30.552C74.7876 30.9893 74.0463 31.208 73.1503 31.208C72.3609 31.208 71.6836 31.0427 71.1183 30.712C70.5529 30.3813 70.1423 29.9227 69.8863 29.336L71.3743 28.472C71.6516 29.24 72.2436 29.624 73.1503 29.624C74.0569 29.624 74.5103 29.3253 74.5103 28.728C74.5103 28.472 74.3609 28.264 74.0623 28.104C73.7743 27.944 73.4169 27.8107 72.9903 27.704C72.5743 27.5867 72.1529 27.4533 71.7263 27.304C71.2996 27.1547 70.9369 26.9093 70.6383 26.568C70.3503 26.216 70.2063 25.7733 70.2063 25.24C70.2063 24.504 70.4836 23.912 71.0383 23.464C71.6036 23.016 72.3023 22.792 73.1343 22.792C73.7956 22.792 74.3823 22.9413 74.8943 23.24C75.4169 23.528 75.8169 23.9333 76.0943 24.456L74.6383 25.272C74.3609 24.664 73.8596 24.36 73.1343 24.36C72.8036 24.36 72.5263 24.4347 72.3023 24.584C72.0783 24.7227 71.9663 24.9307 71.9663 25.208ZM79.3275 21.48C79.1142 21.6933 78.8582 21.8 78.5595 21.8C78.2608 21.8 77.9995 21.6933 77.7755 21.48C77.5622 21.256 77.4555 20.9947 77.4555 20.696C77.4555 20.3973 77.5622 20.1413 77.7755 19.928C77.9888 19.704 78.2502 19.592 78.5595 19.592C78.8688 19.592 79.1302 19.704 79.3435 19.928C79.5568 20.1413 79.6635 20.3973 79.6635 20.696C79.6635 20.9947 79.5515 21.256 79.3275 21.48ZM77.6955 31V23H79.4235V31H77.6955ZM85.8939 24.664H83.9099V28.504C83.9099 28.8347 83.9845 29.0747 84.1339 29.224C84.2832 29.3627 84.5019 29.4427 84.7899 29.464C85.0885 29.4747 85.4565 29.4693 85.8939 29.448V31C84.5712 31.16 83.6219 31.048 83.0459 30.664C82.4699 30.2693 82.1819 29.5493 82.1819 28.504V24.664H80.7099V23H82.1819V21.272L83.9099 20.76V23H85.8939V24.664ZM90.909 31.208C89.7357 31.208 88.7383 30.8027 87.917 29.992C87.0957 29.1813 86.685 28.184 86.685 27C86.685 25.816 87.0957 24.8187 87.917 24.008C88.7383 23.1973 89.7357 22.792 90.909 22.792C92.093 22.792 93.0903 23.1973 93.901 24.008C94.7223 24.8187 95.133 25.816 95.133 27C95.133 28.184 94.7223 29.1813 93.901 29.992C93.0903 30.8027 92.093 31.208 90.909 31.208ZM89.133 28.808C89.613 29.288 90.205 29.528 90.909 29.528C91.613 29.528 92.205 29.288 92.685 28.808C93.165 28.328 93.405 27.7253 93.405 27C93.405 26.2747 93.165 25.672 92.685 25.192C92.205 24.712 91.613 24.472 90.909 24.472C90.205 24.472 89.613 24.712 89.133 25.192C88.653 25.672 88.413 26.2747 88.413 27C88.413 27.7253 88.653 28.328 89.133 28.808ZM98.4235 24.344C98.8608 23.352 99.6822 22.856 100.888 22.856V24.728C100.226 24.6853 99.6502 24.8453 99.1595 25.208C98.6688 25.56 98.4235 26.1467 98.4235 26.968V31H96.6955V23H98.4235V24.344ZM103.435 25.208C103.435 25.4747 103.579 25.688 103.867 25.848C104.166 25.9973 104.523 26.1307 104.939 26.248C105.366 26.3547 105.792 26.4827 106.219 26.632C106.646 26.7813 107.003 27.0373 107.291 27.4C107.59 27.752 107.739 28.2 107.739 28.744C107.739 29.512 107.44 30.1147 106.843 30.552C106.256 30.9893 105.515 31.208 104.619 31.208C103.83 31.208 103.152 31.0427 102.587 30.712C102.022 30.3813 101.611 29.9227 101.355 29.336L102.843 28.472C103.12 29.24 103.712 29.624 104.619 29.624C105.526 29.624 105.979 29.3253 105.979 28.728C105.979 28.472 105.83 28.264 105.531 28.104C105.243 27.944 104.886 27.8107 104.459 27.704C104.043 27.5867 103.622 27.4533 103.195 27.304C102.768 27.1547 102.406 26.9093 102.107 26.568C101.819 26.216 101.675 25.7733 101.675 25.24C101.675 24.504 101.952 23.912 102.507 23.464C103.072 23.016 103.771 22.792 104.603 22.792C105.264 22.792 105.851 22.9413 106.363 23.24C106.886 23.528 107.286 23.9333 107.563 24.456L106.107 25.272C105.83 24.664 105.328 24.36 104.603 24.36C104.272 24.36 103.995 24.4347 103.771 24.584C103.547 24.7227 103.435 24.9307 103.435 25.208Z" fill="#4B5563"/>
<path d="M8.472 53.016C9.608 53.352 10.528 53.944 11.232 54.792C11.952 55.624 12.312 56.632 12.312 57.816C12.312 59.544 11.728 60.896 10.56 61.872C9.408 62.848 7.992 63.336 6.312 63.336C5 63.336 3.824 63.04 2.784 62.448C1.76 61.84 1.016 60.952 0.552 59.784L3.384 58.152C3.8 59.448 4.776 60.096 6.312 60.096C7.16 60.096 7.816 59.896 8.28 59.496C8.76 59.08 9 58.52 9 57.816C9 57.128 8.76 56.576 8.28 56.16C7.816 55.744 7.16 55.536 6.312 55.536H5.592L4.32 53.616L7.632 49.296H1.056V46.2H11.616V48.936L8.472 53.016ZM16.9144 46.2H19.7944V63H16.4824V49.704L13.3144 50.592L12.4984 47.76L16.9144 46.2ZM29.9876 53.016C31.1236 53.352 32.0436 53.944 32.7476 54.792C33.4676 55.624 33.8276 56.632 33.8276 57.816C33.8276 59.544 33.2436 60.896 32.0756 61.872C30.9236 62.848 29.5076 63.336 27.8276 63.336C26.5156 63.336 25.3396 63.04 24.2996 62.448C23.2756 61.84 22.5316 60.952 22.0676 59.784L24.8996 58.152C25.3156 59.448 26.2916 60.096 27.8276 60.096C28.6756 60.096 29.3316 59.896 29.7956 59.496C30.2756 59.08 30.5156 58.52 30.5156 57.816C30.5156 57.128 30.2756 56.576 29.7956 56.16C29.3316 55.744 28.6756 55.536 27.8276 55.536H27.1076L25.8356 53.616L29.1476 49.296H22.5716V46.2H33.1316V48.936L29.9876 53.016Z" fill="black"/>
<line y1="94.5" x2="830" y2="94.5" stroke="#EAECF0"/>
<rect x="169" y="5" width="1" height="78" fill="#EAF8FF"/>
<rect x="202" y="5" width="1" height="78" fill="#EAF8FF"/>
<rect x="235" y="5" width="1" height="78" fill="#EAF8FF"/>
<rect x="268" y="5" width="1" height="78" fill="#EAF8FF"/>
<rect x="301" y="5" width="1" height="78" fill="#EAF8FF"/>
<rect x="334" y="5" width="1" height="78" fill="#EAF8FF"/>
<rect x="367" y="5" width="1" height="78" fill="#EAF8FF"/>
<rect x="400" y="5" width="1" height="78" fill="#EAF8FF"/>
<rect x="433" y="5" width="1" height="78" fill="#EAF8FF"/>
<rect x="466" y="5" width="1" height="78" fill="#EAF8FF"/>
<rect x="499" y="5" width="1" height="78" fill="#EAF8FF"/>
<rect x="532" y="5" width="1" height="78" fill="#EAF8FF"/>
<rect x="565" y="5" width="1" height="78" fill="#EAF8FF"/>
<rect x="598" y="5" width="1" height="78" fill="#EAF8FF"/>
<rect x="631" y="5" width="1" height="78" fill="#EAF8FF"/>
<rect x="664" y="5" width="1" height="78" fill="#EAF8FF"/>
<rect x="697" y="5" width="1" height="78" fill="#EAF8FF"/>
<rect x="730" y="5" width="1" height="78" fill="#EAF8FF"/>
<rect x="763" y="5" width="1" height="78" fill="#EAF8FF"/>
<rect x="796" y="5" width="1" height="78" fill="#EAF8FF"/>
<rect x="829" y="5" width="1" height="78" fill="#EAF8FF"/>
<path d="M170 83L203 79.5L236.5 72L269 56.5L302.5 41L334.5 56.5L367.5 65.5L401 14.5L434 49.5L466.5 41L501 49.5L531.5 23L565.5 47.5L599.5 3L632 50L663.5 30L698 63L764.5 65.5H795L830 23V83H170Z" fill="#70D1FF"/>
<circle cx="170" cy="81" r="3" fill="#006EFF"/>
<circle cx="202" cy="78" r="3" fill="#006EFF"/>
<circle cx="235" cy="73" r="3" fill="#006EFF"/>
<circle cx="268" cy="57" r="3" fill="#006EFF"/>
<circle cx="302" cy="40" r="3" fill="#006EFF"/>
<circle cx="335" cy="56" r="3" fill="#006EFF"/>
<circle cx="366" cy="65" r="3" fill="#006EFF"/>
<circle cx="401" cy="16" r="3" fill="#006EFF"/>
<circle cx="434" cy="49" r="3" fill="#006EFF"/>
<circle cx="467" cy="40" r="3" fill="#006EFF"/>
<circle cx="500" cy="49" r="3" fill="#006EFF"/>
<circle cx="533" cy="23" r="3" fill="#006EFF"/>
<circle cx="565" cy="47" r="3" fill="#006EFF"/>
<circle cx="601" cy="3" r="3" fill="#006EFF"/>
<circle cx="631" cy="48" r="3" fill="#006EFF"/>
<circle cx="663" cy="30" r="3" fill="#006EFF"/>
<circle cx="697" cy="62" r="3" fill="#006EFF"/>
<circle cx="731" cy="63" r="3" fill="#006EFF"/>
<circle cx="764" cy="65" r="3" fill="#006EFF"/>
<circle cx="796" cy="64" r="3" fill="#006EFF"/>
<circle cx="830" cy="24" r="3" fill="#006EFF"/>
<path d="M8.4 138.8V140.56H5.248V150H3.408V140.56H0.24V138.8H8.4ZM11.9871 150.208C10.8138 150.208 9.81646 149.803 8.99513 148.992C8.17379 148.181 7.76313 147.184 7.76313 146C7.76313 144.816 8.17379 143.819 8.99513 143.008C9.81646 142.197 10.8138 141.792 11.9871 141.792C13.1711 141.792 14.1685 142.197 14.9791 143.008C15.8005 143.819 16.2111 144.816 16.2111 146C16.2111 147.184 15.8005 148.181 14.9791 148.992C14.1685 149.803 13.1711 150.208 11.9871 150.208ZM10.2111 147.808C10.6911 148.288 11.2831 148.528 11.9871 148.528C12.6911 148.528 13.2831 148.288 13.7631 147.808C14.2431 147.328 14.4831 146.725 14.4831 146C14.4831 145.275 14.2431 144.672 13.7631 144.192C13.2831 143.712 12.6911 143.472 11.9871 143.472C11.2831 143.472 10.6911 143.712 10.2111 144.192C9.73113 144.672 9.49113 145.275 9.49113 146C9.49113 146.725 9.73113 147.328 10.2111 147.808ZM22.0814 143.664H20.0974V147.504C20.0974 147.835 20.172 148.075 20.3214 148.224C20.4707 148.363 20.6894 148.443 20.9774 148.464C21.276 148.475 21.644 148.469 22.0814 148.448V150C20.7587 150.16 19.8094 150.048 19.2334 149.664C18.6574 149.269 18.3694 148.549 18.3694 147.504V143.664H16.8974V142H18.3694V140.272L20.0974 139.76V142H22.0814V143.664ZM29.6565 142H31.3845V150H29.6565V148.848C29.0058 149.755 28.0725 150.208 26.8565 150.208C25.7578 150.208 24.8192 149.803 24.0405 148.992C23.2618 148.171 22.8725 147.173 22.8725 146C22.8725 144.816 23.2618 143.819 24.0405 143.008C24.8192 142.197 25.7578 141.792 26.8565 141.792C28.0725 141.792 29.0058 142.24 29.6565 143.136V142ZM25.3205 147.84C25.8005 148.32 26.4032 148.56 27.1285 148.56C27.8538 148.56 28.4565 148.32 28.9365 147.84C29.4165 147.349 29.6565 146.736 29.6565 146C29.6565 145.264 29.4165 144.656 28.9365 144.176C28.4565 143.685 27.8538 143.44 27.1285 143.44C26.4032 143.44 25.8005 143.685 25.3205 144.176C24.8405 144.656 24.6005 145.264 24.6005 146C24.6005 146.736 24.8405 147.349 25.3205 147.84ZM33.3986 150V138.32H35.1266V150H33.3986ZM47.629 150L45.261 145.92H43.085V150H41.245V138.8H45.725C46.7277 138.8 47.5757 139.152 48.269 139.856C48.973 140.549 49.325 141.397 49.325 142.4C49.325 143.115 49.117 143.771 48.701 144.368C48.2957 144.955 47.7623 145.381 47.101 145.648L49.645 150H47.629ZM43.085 140.528V144.272H45.725C46.2157 144.272 46.6317 144.091 46.973 143.728C47.3143 143.365 47.485 142.923 47.485 142.4C47.485 141.877 47.3143 141.435 46.973 141.072C46.6317 140.709 46.2157 140.528 45.725 140.528H43.085ZM51.8836 146.736C52.0116 147.344 52.305 147.813 52.7636 148.144C53.2223 148.464 53.7823 148.624 54.4436 148.624C55.361 148.624 56.049 148.293 56.5076 147.632L57.9316 148.464C57.1423 149.627 55.9743 150.208 54.4276 150.208C53.1263 150.208 52.0756 149.813 51.2756 149.024C50.4756 148.224 50.0756 147.216 50.0756 146C50.0756 144.805 50.4703 143.808 51.2596 143.008C52.049 142.197 53.0623 141.792 54.2996 141.792C55.473 141.792 56.433 142.203 57.1796 143.024C57.937 143.845 58.3156 144.843 58.3156 146.016C58.3156 146.197 58.2943 146.437 58.2516 146.736H51.8836ZM51.8676 145.328H56.5716C56.4543 144.677 56.1823 144.187 55.7556 143.856C55.3396 143.525 54.849 143.36 54.2836 143.36C53.6436 143.36 53.1103 143.536 52.6836 143.888C52.257 144.24 51.985 144.72 51.8676 145.328ZM66.1253 142H67.8533V153.2H66.1253V148.864C65.4746 149.76 64.5413 150.208 63.3253 150.208C62.2266 150.208 61.2879 149.803 60.5093 148.992C59.7306 148.181 59.3413 147.184 59.3413 146C59.3413 144.827 59.7306 143.835 60.5093 143.024C61.2879 142.203 62.2266 141.792 63.3253 141.792C64.5413 141.792 65.4746 142.245 66.1253 143.152V142ZM61.7893 147.84C62.2693 148.32 62.8719 148.56 63.5973 148.56C64.3226 148.56 64.9253 148.32 65.4053 147.84C65.8853 147.349 66.1253 146.736 66.1253 146C66.1253 145.264 65.8853 144.656 65.4053 144.176C64.9253 143.685 64.3226 143.44 63.5973 143.44C62.8719 143.44 62.2693 143.685 61.7893 144.176C61.3093 144.656 61.0693 145.264 61.0693 146C61.0693 146.736 61.3093 147.349 61.7893 147.84ZM75.2594 142H76.9874V150H75.2594V148.976C74.7367 149.797 73.91 150.208 72.7794 150.208C71.862 150.208 71.1207 149.915 70.5554 149.328C69.99 148.741 69.7074 147.936 69.7074 146.912V142H71.4354V146.736C71.4354 147.333 71.5954 147.792 71.9154 148.112C72.2354 148.432 72.6727 148.592 73.2274 148.592C73.8354 148.592 74.326 148.405 74.6994 148.032C75.0727 147.648 75.2594 147.067 75.2594 146.288V142ZM80.368 146.736C80.496 147.344 80.7893 147.813 81.248 148.144C81.7067 148.464 82.2667 148.624 82.928 148.624C83.8453 148.624 84.5333 148.293 84.992 147.632L86.416 148.464C85.6267 149.627 84.4587 150.208 82.912 150.208C81.6107 150.208 80.56 149.813 79.76 149.024C78.96 148.224 78.56 147.216 78.56 146C78.56 144.805 78.9547 143.808 79.744 143.008C80.5333 142.197 81.5467 141.792 82.784 141.792C83.9573 141.792 84.9173 142.203 85.664 143.024C86.4213 143.845 86.8 144.843 86.8 146.016C86.8 146.197 86.7787 146.437 86.736 146.736H80.368ZM80.352 145.328H85.056C84.9387 144.677 84.6667 144.187 84.24 143.856C83.824 143.525 83.3333 143.36 82.768 143.36C82.128 143.36 81.5947 143.536 81.168 143.888C80.7413 144.24 80.4693 144.72 80.352 145.328ZM89.56 144.208C89.56 144.475 89.704 144.688 89.992 144.848C90.2907 144.997 90.648 145.131 91.064 145.248C91.4907 145.355 91.9173 145.483 92.344 145.632C92.7707 145.781 93.128 146.037 93.416 146.4C93.7147 146.752 93.864 147.2 93.864 147.744C93.864 148.512 93.5653 149.115 92.968 149.552C92.3813 149.989 91.64 150.208 90.744 150.208C89.9547 150.208 89.2773 150.043 88.712 149.712C88.1467 149.381 87.736 148.923 87.48 148.336L88.968 147.472C89.2453 148.24 89.8373 148.624 90.744 148.624C91.6507 148.624 92.104 148.325 92.104 147.728C92.104 147.472 91.9547 147.264 91.656 147.104C91.368 146.944 91.0107 146.811 90.584 146.704C90.168 146.587 89.7467 146.453 89.32 146.304C88.8933 146.155 88.5307 145.909 88.232 145.568C87.944 145.216 87.8 144.773 87.8 144.24C87.8 143.504 88.0773 142.912 88.632 142.464C89.1973 142.016 89.896 141.792 90.728 141.792C91.3893 141.792 91.976 141.941 92.488 142.24C93.0107 142.528 93.4107 142.933 93.688 143.456L92.232 144.272C91.9547 143.664 91.4533 143.36 90.728 143.36C90.3973 143.36 90.12 143.435 89.896 143.584C89.672 143.723 89.56 143.931 89.56 144.208ZM99.5345 143.664H97.5505V147.504C97.5505 147.835 97.6252 148.075 97.7745 148.224C97.9238 148.363 98.1425 148.443 98.4305 148.464C98.7292 148.475 99.0972 148.469 99.5345 148.448V150C98.2118 150.16 97.2625 150.048 96.6865 149.664C96.1105 149.269 95.8225 148.549 95.8225 147.504V143.664H94.3505V142H95.8225V140.272L97.5505 139.76V142H99.5345V143.664Z" fill="#4B5563"/>
<path d="M4.68 165.2H7.56V182H4.248V168.704L1.08 169.592L0.264 166.76L4.68 165.2ZM13.9373 181.712C13.5373 182.112 13.0573 182.312 12.4973 182.312C11.9373 182.312 11.4573 182.112 11.0573 181.712C10.6573 181.312 10.4573 180.832 10.4573 180.272C10.4573 179.712 10.6573 179.232 11.0573 178.832C11.4573 178.432 11.9373 178.232 12.4973 178.232C13.0573 178.232 13.5373 178.432 13.9373 178.832C14.3373 179.232 14.5373 179.712 14.5373 180.272C14.5373 180.832 14.3373 181.312 13.9373 181.712ZM22.4231 171.32C24.0391 171.32 25.3991 171.808 26.5031 172.784C27.6071 173.744 28.1591 175.088 28.1591 176.816C28.1591 178.544 27.5751 179.896 26.4071 180.872C25.2551 181.848 23.8391 182.336 22.1591 182.336C20.7991 182.336 19.5991 182.032 18.5591 181.424C17.5191 180.816 16.7671 179.92 16.3031 178.736L19.1351 177.08C19.5511 178.424 20.5591 179.096 22.1591 179.096C23.0071 179.096 23.6631 178.896 24.1271 178.496C24.6071 178.08 24.8471 177.52 24.8471 176.816C24.8471 176.128 24.6151 175.576 24.1511 175.16C23.6871 174.744 23.0551 174.536 22.2551 174.536H17.1671L17.8391 165.2H27.3671V168.296H20.9111L20.6951 171.32H22.4231ZM43.5396 182H39.7236L33.7236 174.128V182H30.4116V165.2H33.7236V172.616L39.4836 165.2H43.2996L37.0836 173.36L43.5396 182Z" fill="black"/>
<line y1="213.5" x2="830" y2="213.5" stroke="#EAECF0"/>
<rect x="169" y="124" width="1" height="78" fill="#EAF8FF"/>
<rect x="202" y="124" width="1" height="78" fill="#EAF8FF"/>
<rect x="235" y="124" width="1" height="78" fill="#EAF8FF"/>
<rect x="268" y="124" width="1" height="78" fill="#EAF8FF"/>
<rect x="301" y="124" width="1" height="78" fill="#EAF8FF"/>
<rect x="334" y="124" width="1" height="78" fill="#EAF8FF"/>
<rect x="367" y="124" width="1" height="78" fill="#EAF8FF"/>
<rect x="400" y="124" width="1" height="78" fill="#EAF8FF"/>
<rect x="433" y="124" width="1" height="78" fill="#EAF8FF"/>
<rect x="466" y="124" width="1" height="78" fill="#EAF8FF"/>
<rect x="499" y="124" width="1" height="78" fill="#EAF8FF"/>
<rect x="532" y="124" width="1" height="78" fill="#EAF8FF"/>
<rect x="565" y="124" width="1" height="78" fill="#EAF8FF"/>
<rect x="598" y="124" width="1" height="78" fill="#EAF8FF"/>
<rect x="631" y="124" width="1" height="78" fill="#EAF8FF"/>
<rect x="664" y="124" width="1" height="78" fill="#EAF8FF"/>
<rect x="697" y="124" width="1" height="78" fill="#EAF8FF"/>
<rect x="730" y="124" width="1" height="78" fill="#EAF8FF"/>
<rect x="763" y="124" width="1" height="78" fill="#EAF8FF"/>
<rect x="796" y="124" width="1" height="78" fill="#EAF8FF"/>
<rect x="829" y="124" width="1" height="78" fill="#EAF8FF"/>
<path d="M170 202L203 198.5L239.5 175.5H269L304 191H336L367.5 184.5H402L434 175.5L467.5 122L501.5 191L532 179.5L564.5 149L605.5 179.5L632 169H662.5L698 182L764.5 184.5H795L830 202H170Z" fill="#70D1FF"/>
<circle cx="170" cy="200" r="3" fill="#006EFF"/>
<circle cx="202" cy="198" r="3" fill="#006EFF"/>
<circle cx="235" cy="177" r="3" fill="#006EFF"/>
<circle cx="268" cy="176" r="3" fill="#006EFF"/>
<circle cx="302" cy="191" r="3" fill="#006EFF"/>
<circle cx="335" cy="191" r="3" fill="#006EFF"/>
<circle cx="366" cy="184" r="3" fill="#006EFF"/>
<circle cx="401" cy="184" r="3" fill="#006EFF"/>
<circle cx="434" cy="176" r="3" fill="#006EFF"/>
<circle cx="467" cy="124" r="3" fill="#006EFF"/>
<circle cx="500" cy="191" r="3" fill="#006EFF"/>
<circle cx="533" cy="180" r="3" fill="#006EFF"/>
<circle cx="565" cy="150" r="3" fill="#006EFF"/>
<circle cx="601" cy="178" r="3" fill="#006EFF"/>
<circle cx="631" cy="170" r="3" fill="#006EFF"/>
<circle cx="663" cy="169" r="3" fill="#006EFF"/>
<circle cx="697" cy="181" r="3" fill="#006EFF"/>
<circle cx="731" cy="182" r="3" fill="#006EFF"/>
<circle cx="764" cy="184" r="3" fill="#006EFF"/>
<circle cx="796" cy="183" r="3" fill="#006EFF"/>
<circle cx="830" cy="199" r="3" fill="#006EFF"/>
<path d="M5.248 257.8C6.304 257.8 7.184 258.152 7.888 258.856C8.60267 259.56 8.96 260.435 8.96 261.48C8.96 262.515 8.60267 263.389 7.888 264.104C7.184 264.808 6.304 265.16 5.248 265.16H2.96V269H1.12V257.8H5.248ZM5.248 263.432C5.792 263.432 6.24 263.251 6.592 262.888C6.944 262.515 7.12 262.045 7.12 261.48C7.12 260.915 6.944 260.451 6.592 260.088C6.24 259.715 5.792 259.528 5.248 259.528H2.96V263.432H5.248ZM11.243 265.736C11.371 266.344 11.6643 266.813 12.123 267.144C12.5817 267.464 13.1417 267.624 13.803 267.624C14.7203 267.624 15.4083 267.293 15.867 266.632L17.291 267.464C16.5017 268.627 15.3337 269.208 13.787 269.208C12.4857 269.208 11.435 268.813 10.635 268.024C9.835 267.224 9.435 266.216 9.435 265C9.435 263.805 9.82967 262.808 10.619 262.008C11.4083 261.197 12.4217 260.792 13.659 260.792C14.8323 260.792 15.7923 261.203 16.539 262.024C17.2963 262.845 17.675 263.843 17.675 265.016C17.675 265.197 17.6537 265.437 17.611 265.736H11.243ZM11.227 264.328H15.931C15.8137 263.677 15.5417 263.187 15.115 262.856C14.699 262.525 14.2083 262.36 13.643 262.36C13.003 262.36 12.4697 262.536 12.043 262.888C11.6163 263.24 11.3443 263.72 11.227 264.328ZM20.9235 262.344C21.3608 261.352 22.1822 260.856 23.3875 260.856V262.728C22.7262 262.685 22.1502 262.845 21.6595 263.208C21.1688 263.56 20.9235 264.147 20.9235 264.968V269H19.1955V261H20.9235V262.344ZM28.0653 269.208C26.8599 269.208 25.8519 268.803 25.0413 267.992C24.2413 267.181 23.8413 266.184 23.8413 265C23.8413 263.805 24.2413 262.808 25.0413 262.008C25.8519 261.197 26.8599 260.792 28.0653 260.792C28.8439 260.792 29.5533 260.979 30.1933 261.352C30.8333 261.725 31.3133 262.227 31.6333 262.856L30.1453 263.72C29.9639 263.336 29.6866 263.037 29.3133 262.824C28.9506 262.6 28.5293 262.488 28.0493 262.488C27.3453 262.488 26.7533 262.728 26.2733 263.208C25.8039 263.688 25.5693 264.285 25.5693 265C25.5693 265.715 25.8039 266.312 26.2733 266.792C26.7533 267.272 27.3453 267.512 28.0493 267.512C28.5186 267.512 28.9399 267.4 29.3133 267.176C29.6973 266.952 29.9853 266.653 30.1773 266.28L31.6653 267.128C31.3239 267.768 30.8333 268.275 30.1933 268.648C29.5533 269.021 28.8439 269.208 28.0653 269.208ZM34.1493 265.736C34.2773 266.344 34.5706 266.813 35.0293 267.144C35.4879 267.464 36.0479 267.624 36.7093 267.624C37.6266 267.624 38.3146 267.293 38.7733 266.632L40.1973 267.464C39.4079 268.627 38.2399 269.208 36.6933 269.208C35.3919 269.208 34.3413 268.813 33.5413 268.024C32.7413 267.224 32.3413 266.216 32.3413 265C32.3413 263.805 32.7359 262.808 33.5253 262.008C34.3146 261.197 35.3279 260.792 36.5653 260.792C37.7386 260.792 38.6986 261.203 39.4453 262.024C40.2026 262.845 40.5813 263.843 40.5813 265.016C40.5813 265.197 40.5599 265.437 40.5173 265.736H34.1493ZM34.1332 264.328H38.8373C38.7199 263.677 38.4479 263.187 38.0213 262.856C37.6053 262.525 37.1146 262.36 36.5493 262.36C35.9093 262.36 35.3759 262.536 34.9493 262.888C34.5226 263.24 34.2506 263.72 34.1332 264.328ZM46.3098 260.792C47.2271 260.792 47.9684 261.085 48.5338 261.672C49.0991 262.259 49.3818 263.064 49.3818 264.088V269H47.6538V264.264C47.6538 263.667 47.4938 263.208 47.1738 262.888C46.8538 262.568 46.4164 262.408 45.8618 262.408C45.2538 262.408 44.7631 262.6 44.3898 262.984C44.0164 263.357 43.8298 263.933 43.8298 264.712V269H42.1018V261H43.8298V262.024C44.3524 261.203 45.1791 260.792 46.3098 260.792ZM55.7064 262.664H53.7224V266.504C53.7224 266.835 53.797 267.075 53.9464 267.224C54.0957 267.363 54.3144 267.443 54.6024 267.464C54.901 267.475 55.269 267.469 55.7064 267.448V269C54.3837 269.16 53.4344 269.048 52.8584 268.664C52.2824 268.269 51.9944 267.549 51.9944 266.504V262.664H50.5224V261H51.9944V259.272L53.7224 258.76V261H55.7064V262.664ZM66.7598 269.208C65.0744 269.208 63.6771 268.653 62.5678 267.544C61.4584 266.424 60.9038 265.043 60.9038 263.4C60.9038 261.757 61.4584 260.381 62.5678 259.272C63.6771 258.152 65.0744 257.592 66.7598 257.592C67.7731 257.592 68.7064 257.832 69.5598 258.312C70.4238 258.792 71.0958 259.443 71.5758 260.264L69.9758 261.192C69.6771 260.637 69.2398 260.2 68.6638 259.88C68.0984 259.549 67.4638 259.384 66.7598 259.384C65.5651 259.384 64.5944 259.763 63.8478 260.52C63.1118 261.277 62.7438 262.237 62.7438 263.4C62.7438 264.563 63.1118 265.523 63.8478 266.28C64.5944 267.037 65.5651 267.416 66.7598 267.416C67.4638 267.416 68.1038 267.256 68.6798 266.936C69.2558 266.605 69.6878 266.163 69.9758 265.608L71.5758 266.52C71.1064 267.341 70.4398 267.997 69.5758 268.488C68.7224 268.968 67.7838 269.208 66.7598 269.208ZM79.3128 261H81.0408V269H79.3128V267.848C78.6621 268.755 77.7288 269.208 76.5128 269.208C75.4141 269.208 74.4754 268.803 73.6968 267.992C72.9181 267.171 72.5288 266.173 72.5288 265C72.5288 263.816 72.9181 262.819 73.6968 262.008C74.4754 261.197 75.4141 260.792 76.5128 260.792C77.7288 260.792 78.6621 261.24 79.3128 262.136V261ZM74.9768 266.84C75.4568 267.32 76.0594 267.56 76.7848 267.56C77.5101 267.56 78.1128 267.32 78.5928 266.84C79.0728 266.349 79.3128 265.736 79.3128 265C79.3128 264.264 79.0728 263.656 78.5928 263.176C78.1128 262.685 77.5101 262.44 76.7848 262.44C76.0594 262.44 75.4568 262.685 74.9768 263.176C74.4968 263.656 74.2568 264.264 74.2568 265C74.2568 265.736 74.4968 266.349 74.9768 266.84ZM86.8309 269.208C85.6255 269.208 84.6175 268.803 83.8069 267.992C83.0069 267.181 82.6069 266.184 82.6069 265C82.6069 263.805 83.0069 262.808 83.8069 262.008C84.6175 261.197 85.6255 260.792 86.8309 260.792C87.6095 260.792 88.3189 260.979 88.9589 261.352C89.5989 261.725 90.0789 262.227 90.3989 262.856L88.9109 263.72C88.7295 263.336 88.4522 263.037 88.0789 262.824C87.7162 262.6 87.2949 262.488 86.8149 262.488C86.1109 262.488 85.5189 262.728 85.0389 263.208C84.5695 263.688 84.3349 264.285 84.3349 265C84.3349 265.715 84.5695 266.312 85.0389 266.792C85.5189 267.272 86.1109 267.512 86.8149 267.512C87.2842 267.512 87.7055 267.4 88.0789 267.176C88.4629 266.952 88.7509 266.653 88.9429 266.28L90.4309 267.128C90.0895 267.768 89.5989 268.275 88.9589 268.648C88.3189 269.021 87.6095 269.208 86.8309 269.208ZM95.8879 260.792C96.8052 260.792 97.5465 261.085 98.1119 261.672C98.6772 262.259 98.9599 263.064 98.9599 264.088V269H97.2319V264.264C97.2319 263.667 97.0719 263.208 96.7519 262.888C96.4319 262.568 95.9945 262.408 95.4399 262.408C94.8319 262.408 94.3412 262.6 93.9679 262.984C93.5945 263.357 93.4079 263.933 93.4079 264.712V269H91.6799V257.8H93.4079V262.024C93.9305 261.203 94.7572 260.792 95.8879 260.792ZM102.181 265.736C102.309 266.344 102.602 266.813 103.061 267.144C103.519 267.464 104.079 267.624 104.741 267.624C105.658 267.624 106.346 267.293 106.805 266.632L108.229 267.464C107.439 268.627 106.271 269.208 104.725 269.208C103.423 269.208 102.373 268.813 101.573 268.024C100.773 267.224 100.373 266.216 100.373 265C100.373 263.805 100.767 262.808 101.557 262.008C102.346 261.197 103.359 260.792 104.597 260.792C105.77 260.792 106.73 261.203 107.477 262.024C108.234 262.845 108.613 263.843 108.613 265.016C108.613 265.197 108.591 265.437 108.549 265.736H102.181ZM102.164 264.328H106.869C106.751 263.677 106.479 263.187 106.053 262.856C105.637 262.525 105.146 262.36 104.581 262.36C103.941 262.36 103.407 262.536 102.981 262.888C102.554 263.24 102.282 263.72 102.164 264.328ZM116.422 257.8H118.15V269H116.422V267.848C115.771 268.755 114.838 269.208 113.622 269.208C112.523 269.208 111.585 268.803 110.806 267.992C110.027 267.171 109.638 266.173 109.638 265C109.638 263.816 110.027 262.819 110.806 262.008C111.585 261.197 112.523 260.792 113.622 260.792C114.838 260.792 115.771 261.24 116.422 262.136V257.8ZM112.086 266.84C112.566 267.32 113.169 267.56 113.894 267.56C114.619 267.56 115.222 267.32 115.702 266.84C116.182 266.349 116.422 265.736 116.422 265C116.422 264.264 116.182 263.656 115.702 263.176C115.222 262.685 114.619 262.44 113.894 262.44C113.169 262.44 112.566 262.685 112.086 263.176C111.606 263.656 111.366 264.264 111.366 265C111.366 265.736 111.606 266.349 112.086 266.84Z" fill="#4B5563"/>
<path d="M7.56 301.336C5.464 301.336 3.816 300.544 2.616 298.96C1.432 297.36 0.84 295.24 0.84 292.6C0.84 289.96 1.432 287.848 2.616 286.264C3.816 284.664 5.464 283.864 7.56 283.864C9.672 283.864 11.32 284.664 12.504 286.264C13.688 287.848 14.28 289.96 14.28 292.6C14.28 295.24 13.688 297.36 12.504 298.96C11.32 300.544 9.672 301.336 7.56 301.336ZM5.016 296.704C5.592 297.632 6.44 298.096 7.56 298.096C8.68 298.096 9.528 297.624 10.104 296.68C10.696 295.736 10.992 294.376 10.992 292.6C10.992 290.808 10.696 289.44 10.104 288.496C9.528 287.552 8.68 287.08 7.56 287.08C6.44 287.08 5.592 287.552 5.016 288.496C4.44 289.44 4.152 290.808 4.152 292.6C4.152 294.392 4.44 295.76 5.016 296.704ZM22.6644 290.656C21.8964 291.408 20.9364 291.784 19.7844 291.784C18.6324 291.784 17.6644 291.4 16.8804 290.632C16.1124 289.864 15.7284 288.928 15.7284 287.824C15.7284 286.72 16.1124 285.784 16.8804 285.016C17.6644 284.248 18.6324 283.864 19.7844 283.864C20.9364 283.864 21.8964 284.248 22.6644 285.016C23.4324 285.768 23.8164 286.704 23.8164 287.824C23.8164 288.944 23.4324 289.888 22.6644 290.656ZM17.4324 298.456L28.3764 286.288L29.8404 287.104L18.8724 299.296L17.4324 298.456ZM18.6804 288.928C18.9684 289.216 19.3284 289.36 19.7604 289.36C20.1924 289.36 20.5524 289.216 20.8404 288.928C21.1284 288.624 21.2724 288.256 21.2724 287.824C21.2724 287.392 21.1284 287.032 20.8404 286.744C20.5524 286.456 20.1924 286.312 19.7604 286.312C19.3284 286.312 18.9684 286.456 18.6804 286.744C18.4084 287.032 18.2724 287.392 18.2724 287.824C18.2724 288.256 18.4084 288.624 18.6804 288.928ZM30.7764 300.136C30.0084 300.904 29.0484 301.288 27.8964 301.288C26.7444 301.288 25.7844 300.904 25.0164 300.136C24.2484 299.368 23.8644 298.432 23.8644 297.328C23.8644 296.224 24.2484 295.288 25.0164 294.52C25.7844 293.752 26.7444 293.368 27.8964 293.368C29.0484 293.368 30.0084 293.752 30.7764 294.52C31.5444 295.288 31.9284 296.224 31.9284 297.328C31.9284 298.432 31.5444 299.368 30.7764 300.136ZM26.8164 298.432C27.1044 298.72 27.4644 298.864 27.8964 298.864C28.3284 298.864 28.6804 298.712 28.9524 298.408C29.2404 298.104 29.3844 297.744 29.3844 297.328C29.3844 296.896 29.2404 296.536 28.9524 296.248C28.6804 295.944 28.3284 295.792 27.8964 295.792C27.4644 295.792 27.1044 295.944 26.8164 296.248C26.5444 296.536 26.4084 296.896 26.4084 297.328C26.4084 297.76 26.5444 298.128 26.8164 298.432Z" fill="black"/>
<line y1="332.5" x2="830" y2="332.5" stroke="#EAECF0"/>
<rect x="169" y="243" width="1" height="78" fill="#EAF8FF"/>
<rect x="202" y="243" width="1" height="78" fill="#EAF8FF"/>
<rect x="235" y="243" width="1" height="78" fill="#EAF8FF"/>
<rect x="268" y="243" width="1" height="78" fill="#EAF8FF"/>
<rect x="301" y="243" width="1" height="78" fill="#EAF8FF"/>
<rect x="334" y="243" width="1" height="78" fill="#EAF8FF"/>
<rect x="367" y="243" width="1" height="78" fill="#EAF8FF"/>
<rect x="400" y="243" width="1" height="78" fill="#EAF8FF"/>
<rect x="433" y="243" width="1" height="78" fill="#EAF8FF"/>
<rect x="466" y="243" width="1" height="78" fill="#EAF8FF"/>
<rect x="499" y="243" width="1" height="78" fill="#EAF8FF"/>
<rect x="532" y="243" width="1" height="78" fill="#EAF8FF"/>
<rect x="565" y="243" width="1" height="78" fill="#EAF8FF"/>
<rect x="598" y="243" width="1" height="78" fill="#EAF8FF"/>
<rect x="631" y="243" width="1" height="78" fill="#EAF8FF"/>
<rect x="664" y="243" width="1" height="78" fill="#EAF8FF"/>
<rect x="697" y="243" width="1" height="78" fill="#EAF8FF"/>
<rect x="730" y="243" width="1" height="78" fill="#EAF8FF"/>
<rect x="763" y="243" width="1" height="78" fill="#EAF8FF"/>
<rect x="796" y="243" width="1" height="78" fill="#EAF8FF"/>
<rect x="829" y="243" width="1" height="78" fill="#EAF8FF"/>
<circle cx="170" cy="318" r="3" fill="#006EFF"/>
<circle cx="202" cy="318" r="3" fill="#006EFF"/>
<circle cx="235" cy="318" r="3" fill="#006EFF"/>
<circle cx="268" cy="318" r="3" fill="#006EFF"/>
<circle cx="302" cy="318" r="3" fill="#006EFF"/>
<circle cx="335" cy="318" r="3" fill="#006EFF"/>
<circle cx="366" cy="318" r="3" fill="#006EFF"/>
<circle cx="401" cy="318" r="3" fill="#006EFF"/>
<circle cx="434" cy="318" r="3" fill="#006EFF"/>
<circle cx="467" cy="318" r="3" fill="#006EFF"/>
<circle cx="500" cy="318" r="3" fill="#006EFF"/>
<circle cx="533" cy="318" r="3" fill="#006EFF"/>
<circle cx="565" cy="318" r="3" fill="#006EFF"/>
<circle cx="601" cy="318" r="3" fill="#006EFF"/>
<circle cx="631" cy="318" r="3" fill="#006EFF"/>
<circle cx="663" cy="318" r="3" fill="#006EFF"/>
<circle cx="697" cy="318" r="3" fill="#006EFF"/>
<circle cx="731" cy="318" r="3" fill="#006EFF"/>
<circle cx="764" cy="318" r="3" fill="#006EFF"/>
<circle cx="796" cy="318" r="3" fill="#006EFF"/>
<circle cx="830" cy="318" r="3" fill="#006EFF"/>
<path d="M8.4 376.8V378.56H5.248V388H3.408V378.56H0.24V376.8H8.4ZM11.9871 388.208C10.8138 388.208 9.81646 387.803 8.99513 386.992C8.17379 386.181 7.76313 385.184 7.76313 384C7.76313 382.816 8.17379 381.819 8.99513 381.008C9.81646 380.197 10.8138 379.792 11.9871 379.792C13.1711 379.792 14.1685 380.197 14.9791 381.008C15.8005 381.819 16.2111 382.816 16.2111 384C16.2111 385.184 15.8005 386.181 14.9791 386.992C14.1685 387.803 13.1711 388.208 11.9871 388.208ZM10.2111 385.808C10.6911 386.288 11.2831 386.528 11.9871 386.528C12.6911 386.528 13.2831 386.288 13.7631 385.808C14.2431 385.328 14.4831 384.725 14.4831 384C14.4831 383.275 14.2431 382.672 13.7631 382.192C13.2831 381.712 12.6911 381.472 11.9871 381.472C11.2831 381.472 10.6911 381.712 10.2111 382.192C9.73113 382.672 9.49113 383.275 9.49113 384C9.49113 384.725 9.73113 385.328 10.2111 385.808ZM22.0814 381.664H20.0974V385.504C20.0974 385.835 20.172 386.075 20.3214 386.224C20.4707 386.363 20.6894 386.443 20.9774 386.464C21.276 386.475 21.644 386.469 22.0814 386.448V388C20.7587 388.16 19.8094 388.048 19.2334 387.664C18.6574 387.269 18.3694 386.549 18.3694 385.504V381.664H16.8974V380H18.3694V378.272L20.0974 377.76V380H22.0814V381.664ZM29.6565 380H31.3845V388H29.6565V386.848C29.0058 387.755 28.0725 388.208 26.8565 388.208C25.7578 388.208 24.8192 387.803 24.0405 386.992C23.2618 386.171 22.8725 385.173 22.8725 384C22.8725 382.816 23.2618 381.819 24.0405 381.008C24.8192 380.197 25.7578 379.792 26.8565 379.792C28.0725 379.792 29.0058 380.24 29.6565 381.136V380ZM25.3205 385.84C25.8005 386.32 26.4032 386.56 27.1285 386.56C27.8538 386.56 28.4565 386.32 28.9365 385.84C29.4165 385.349 29.6565 384.736 29.6565 384C29.6565 383.264 29.4165 382.656 28.9365 382.176C28.4565 381.685 27.8538 381.44 27.1285 381.44C26.4032 381.44 25.8005 381.685 25.3205 382.176C24.8405 382.656 24.6005 383.264 24.6005 384C24.6005 384.736 24.8405 385.349 25.3205 385.84ZM33.3986 388V376.32H35.1266V388H33.3986ZM45.645 376.8C47.181 376.8 48.4557 377.339 49.469 378.416C50.493 379.493 51.005 380.821 51.005 382.4C51.005 383.968 50.493 385.296 49.469 386.384C48.4557 387.461 47.181 388 45.645 388H41.245V376.8H45.645ZM45.645 386.24C46.701 386.24 47.5597 385.877 48.221 385.152C48.893 384.427 49.229 383.509 49.229 382.4C49.229 381.28 48.893 380.363 48.221 379.648C47.5597 378.923 46.701 378.56 45.645 378.56H43.085V386.24H45.645ZM58.9065 380H60.6345V388H58.9065V386.848C58.2558 387.755 57.3225 388.208 56.1065 388.208C55.0078 388.208 54.0692 387.803 53.2905 386.992C52.5118 386.171 52.1225 385.173 52.1225 384C52.1225 382.816 52.5118 381.819 53.2905 381.008C54.0692 380.197 55.0078 379.792 56.1065 379.792C57.3225 379.792 58.2558 380.24 58.9065 381.136V380ZM54.5705 385.84C55.0505 386.32 55.6532 386.56 56.3785 386.56C57.1038 386.56 57.7065 386.32 58.1865 385.84C58.6665 385.349 58.9065 384.736 58.9065 384C58.9065 383.264 58.6665 382.656 58.1865 382.176C57.7065 381.685 57.1038 381.44 56.3785 381.44C55.6532 381.44 55.0505 381.685 54.5705 382.176C54.0905 382.656 53.8505 383.264 53.8505 384C53.8505 384.736 54.0905 385.349 54.5705 385.84ZM67.1126 381.664H65.1286V385.504C65.1286 385.835 65.2033 386.075 65.3526 386.224C65.502 386.363 65.7206 386.443 66.0086 386.464C66.3073 386.475 66.6753 386.469 67.1126 386.448V388C65.79 388.16 64.8406 388.048 64.2646 387.664C63.6886 387.269 63.4006 386.549 63.4006 385.504V381.664H61.9286V380H63.4006V378.272L65.1286 377.76V380H67.1126V381.664ZM74.6878 380H76.4158V388H74.6878V386.848C74.0371 387.755 73.1038 388.208 71.8878 388.208C70.7891 388.208 69.8504 387.803 69.0718 386.992C68.2931 386.171 67.9038 385.173 67.9038 384C67.9038 382.816 68.2931 381.819 69.0718 381.008C69.8504 380.197 70.7891 379.792 71.8878 379.792C73.1038 379.792 74.0371 380.24 74.6878 381.136V380ZM70.3518 385.84C70.8318 386.32 71.4344 386.56 72.1598 386.56C72.8851 386.56 73.4878 386.32 73.9678 385.84C74.4478 385.349 74.6878 384.736 74.6878 384C74.6878 383.264 74.4478 382.656 73.9678 382.176C73.4878 381.685 72.8851 381.44 72.1598 381.44C71.4344 381.44 70.8318 381.685 70.3518 382.176C69.8718 382.656 69.6318 383.264 69.6318 384C69.6318 384.736 69.8718 385.349 70.3518 385.84ZM86.2699 388.208C85.1925 388.208 84.2752 387.963 83.5179 387.472C82.7712 386.981 82.2485 386.309 81.9499 385.456L83.5339 384.528C83.9819 385.787 84.9099 386.416 86.3179 386.416C87.0112 386.416 87.5285 386.283 87.8699 386.016C88.2219 385.739 88.3979 385.381 88.3979 384.944C88.3979 384.485 88.2112 384.139 87.8379 383.904C87.4645 383.659 86.8032 383.392 85.8539 383.104C85.3205 382.944 84.8885 382.795 84.5579 382.656C84.2272 382.517 83.8752 382.325 83.5019 382.08C83.1392 381.824 82.8672 381.509 82.6859 381.136C82.5045 380.763 82.4139 380.325 82.4139 379.824C82.4139 378.832 82.7659 378.048 83.4699 377.472C84.1739 376.885 85.0219 376.592 86.0139 376.592C86.9099 376.592 87.6939 376.811 88.3659 377.248C89.0379 377.685 89.5552 378.288 89.9179 379.056L88.3659 379.952C87.8965 378.907 87.1125 378.384 86.0139 378.384C85.4805 378.384 85.0539 378.512 84.7339 378.768C84.4139 379.013 84.2539 379.349 84.2539 379.776C84.2539 380.192 84.4139 380.523 84.7339 380.768C85.0645 381.003 85.6565 381.253 86.5099 381.52C86.9365 381.659 87.2459 381.765 87.4379 381.84C87.6405 381.904 87.9179 382.011 88.2699 382.16C88.6325 382.309 88.9045 382.459 89.0859 382.608C89.2672 382.757 89.4592 382.944 89.6619 383.168C89.8752 383.392 90.0245 383.648 90.1099 383.936C90.1952 384.224 90.2379 384.549 90.2379 384.912C90.2379 385.925 89.8699 386.731 89.1339 387.328C88.4085 387.915 87.4539 388.208 86.2699 388.208ZM98.2659 380H99.9939V388H98.2659V386.848C97.6152 387.755 96.6819 388.208 95.4659 388.208C94.3672 388.208 93.4285 387.803 92.6499 386.992C91.8712 386.171 91.4819 385.173 91.4819 384C91.4819 382.816 91.8712 381.819 92.6499 381.008C93.4285 380.197 94.3672 379.792 95.4659 379.792C96.6819 379.792 97.6152 380.24 98.2659 381.136V380ZM93.9299 385.84C94.4099 386.32 95.0125 386.56 95.7379 386.56C96.4632 386.56 97.0659 386.32 97.5459 385.84C98.0259 385.349 98.2659 384.736 98.2659 384C98.2659 383.264 98.0259 382.656 97.5459 382.176C97.0659 381.685 96.4632 381.44 95.7379 381.44C95.0125 381.44 94.4099 381.685 93.9299 382.176C93.4499 382.656 93.2099 383.264 93.2099 384C93.2099 384.736 93.4499 385.349 93.9299 385.84ZM103.736 381.344C104.173 380.352 104.995 379.856 106.2 379.856V381.728C105.539 381.685 104.963 381.845 104.472 382.208C103.981 382.56 103.736 383.147 103.736 383.968V388H102.008V380H103.736V381.344ZM112.901 380H114.789L111.669 388H109.669L106.549 380H108.437L110.677 386.08L112.901 380ZM116.931 384.736C117.059 385.344 117.352 385.813 117.811 386.144C118.269 386.464 118.829 386.624 119.491 386.624C120.408 386.624 121.096 386.293 121.555 385.632L122.979 386.464C122.189 387.627 121.021 388.208 119.475 388.208C118.173 388.208 117.123 387.813 116.323 387.024C115.523 386.224 115.123 385.216 115.123 384C115.123 382.805 115.517 381.808 116.307 381.008C117.096 380.197 118.109 379.792 119.347 379.792C120.52 379.792 121.48 380.203 122.227 381.024C122.984 381.845 123.363 382.843 123.363 384.016C123.363 384.197 123.341 384.437 123.299 384.736H116.931ZM116.914 383.328H121.619C121.501 382.677 121.229 382.187 120.803 381.856C120.387 381.525 119.896 381.36 119.331 381.36C118.691 381.36 118.157 381.536 117.731 381.888C117.304 382.24 117.032 382.72 116.914 383.328ZM131.172 376.8H132.9V388H131.172V386.848C130.521 387.755 129.588 388.208 128.372 388.208C127.273 388.208 126.335 387.803 125.556 386.992C124.777 386.171 124.388 385.173 124.388 384C124.388 382.816 124.777 381.819 125.556 381.008C126.335 380.197 127.273 379.792 128.372 379.792C129.588 379.792 130.521 380.24 131.172 381.136V376.8ZM126.836 385.84C127.316 386.32 127.919 386.56 128.644 386.56C129.369 386.56 129.972 386.32 130.452 385.84C130.932 385.349 131.172 384.736 131.172 384C131.172 383.264 130.932 382.656 130.452 382.176C129.972 381.685 129.369 381.44 128.644 381.44C127.919 381.44 127.316 381.685 126.836 382.176C126.356 382.656 126.116 383.264 126.116 384C126.116 384.736 126.356 385.349 126.836 385.84Z" fill="#4B5563"/>
<path d="M8.472 410.016C9.608 410.352 10.528 410.944 11.232 411.792C11.952 412.624 12.312 413.632 12.312 414.816C12.312 416.544 11.728 417.896 10.56 418.872C9.408 419.848 7.992 420.336 6.312 420.336C5 420.336 3.824 420.04 2.784 419.448C1.76 418.84 1.016 417.952 0.552 416.784L3.384 415.152C3.8 416.448 4.776 417.096 6.312 417.096C7.16 417.096 7.816 416.896 8.28 416.496C8.76 416.08 9 415.52 9 414.816C9 414.128 8.76 413.576 8.28 413.16C7.816 412.744 7.16 412.536 6.312 412.536H5.592L4.32 410.616L7.632 406.296H1.056V403.2H11.616V405.936L8.472 410.016ZM19.5638 409.32C21.1798 409.32 22.5398 409.808 23.6438 410.784C24.7478 411.744 25.2998 413.088 25.2998 414.816C25.2998 416.544 24.7158 417.896 23.5478 418.872C22.3958 419.848 20.9798 420.336 19.2998 420.336C17.9398 420.336 16.7398 420.032 15.6998 419.424C14.6598 418.816 13.9078 417.92 13.4438 416.736L16.2758 415.08C16.6918 416.424 17.6998 417.096 19.2998 417.096C20.1478 417.096 20.8038 416.896 21.2678 416.496C21.7478 416.08 21.9878 415.52 21.9878 414.816C21.9878 414.128 21.7558 413.576 21.2918 413.16C20.8278 412.744 20.1958 412.536 19.3958 412.536H14.3078L14.9798 403.2H24.5078V406.296H18.0518L17.8358 409.32H19.5638ZM49.9922 403.2V420H46.7042V409.104L41.9762 416.904H41.5922L36.8642 409.128V420H33.5522V403.2H36.9602L41.7842 411.144L46.5842 403.2H49.9922ZM63.2745 411.288C64.7465 412.136 65.4825 413.416 65.4825 415.128C65.4825 416.552 64.9785 417.72 63.9705 418.632C62.9625 419.544 61.7225 420 60.2505 420H53.1225V403.2H59.7465C61.1865 403.2 62.3945 403.648 63.3705 404.544C64.3625 405.424 64.8585 406.552 64.8585 407.928C64.8585 409.32 64.3305 410.44 63.2745 411.288ZM59.7465 406.296H56.4345V409.992H59.7465C60.2585 409.992 60.6825 409.816 61.0185 409.464C61.3705 409.112 61.5465 408.672 61.5465 408.144C61.5465 407.616 61.3785 407.176 61.0425 406.824C60.7065 406.472 60.2745 406.296 59.7465 406.296ZM60.2505 416.904C60.8105 416.904 61.2745 416.72 61.6425 416.352C62.0105 415.968 62.1945 415.488 62.1945 414.912C62.1945 414.352 62.0105 413.888 61.6425 413.52C61.2745 413.136 60.8105 412.944 60.2505 412.944H56.4345V416.904H60.2505Z" fill="black"/>
<line y1="451.5" x2="830" y2="451.5" stroke="#EAECF0"/>
<rect x="169" y="362" width="1" height="78" fill="#EAF8FF"/>
<rect x="202" y="362" width="1" height="78" fill="#EAF8FF"/>
<rect x="235" y="362" width="1" height="78" fill="#EAF8FF"/>
<rect x="268" y="362" width="1" height="78" fill="#EAF8FF"/>
<rect x="301" y="362" width="1" height="78" fill="#EAF8FF"/>
<rect x="334" y="362" width="1" height="78" fill="#EAF8FF"/>
<rect x="367" y="362" width="1" height="78" fill="#EAF8FF"/>
<rect x="400" y="362" width="1" height="78" fill="#EAF8FF"/>
<rect x="433" y="362" width="1" height="78" fill="#EAF8FF"/>
<rect x="466" y="362" width="1" height="78" fill="#EAF8FF"/>
<rect x="499" y="362" width="1" height="78" fill="#EAF8FF"/>
<rect x="532" y="362" width="1" height="78" fill="#EAF8FF"/>
<rect x="565" y="362" width="1" height="78" fill="#EAF8FF"/>
<rect x="598" y="362" width="1" height="78" fill="#EAF8FF"/>
<rect x="631" y="362" width="1" height="78" fill="#EAF8FF"/>
<rect x="664" y="362" width="1" height="78" fill="#EAF8FF"/>
<rect x="697" y="362" width="1" height="78" fill="#EAF8FF"/>
<rect x="730" y="362" width="1" height="78" fill="#EAF8FF"/>
<rect x="763" y="362" width="1" height="78" fill="#EAF8FF"/>
<rect x="796" y="362" width="1" height="78" fill="#EAF8FF"/>
<rect x="829" y="362" width="1" height="78" fill="#EAF8FF"/>
<path d="M170 440L203 436.5L236.5 429L269 413.5L302.5 398L334.5 413.5L367.5 422.5L401 371.5L434 406.5L466.5 398L501 406.5L531.5 380L565.5 404.5L599.5 360L632 407L663.5 387L698 420L764.5 422.5H795L830 380V440H170Z" fill="#70D1FF"/>
<circle cx="170" cy="438" r="3" fill="#006EFF"/>
<circle cx="202" cy="435" r="3" fill="#006EFF"/>
<circle cx="235" cy="430" r="3" fill="#006EFF"/>
<circle cx="268" cy="414" r="3" fill="#006EFF"/>
<circle cx="302" cy="397" r="3" fill="#006EFF"/>
<circle cx="335" cy="413" r="3" fill="#006EFF"/>
<circle cx="366" cy="422" r="3" fill="#006EFF"/>
<circle cx="401" cy="373" r="3" fill="#006EFF"/>
<circle cx="434" cy="406" r="3" fill="#006EFF"/>
<circle cx="467" cy="397" r="3" fill="#006EFF"/>
<circle cx="500" cy="406" r="3" fill="#006EFF"/>
<circle cx="533" cy="380" r="3" fill="#006EFF"/>
<circle cx="565" cy="404" r="3" fill="#006EFF"/>
<circle cx="601" cy="360" r="3" fill="#006EFF"/>
<circle cx="631" cy="405" r="3" fill="#006EFF"/>
<circle cx="663" cy="387" r="3" fill="#006EFF"/>
<circle cx="697" cy="419" r="3" fill="#006EFF"/>
<circle cx="731" cy="420" r="3" fill="#006EFF"/>
<circle cx="764" cy="422" r="3" fill="#006EFF"/>
<circle cx="796" cy="421" r="3" fill="#006EFF"/>
<circle cx="830" cy="381" r="3" fill="#006EFF"/>
</svg>
